<svg xmlns="http://www.w3.org/2000/svg" viewBox="0 0 512 512">
  <!-- Fundo quadrado arredondado -->
  <rect width="512" height="512" rx="80" fill="#2563eb"/>

  <!-- Edifício principal -->
  <rect x="166" y="156" width="180" height="230" rx="10" fill="white"/>

  <!-- Janelas edifício principal -->
  <rect x="192" y="192" width="50" height="36" rx="6" fill="#2563eb" opacity="0.6"/>
  <rect x="270" y="192" width="50" height="36" rx="6" fill="#2563eb" opacity="0.6"/>
  <rect x="192" y="252" width="50" height="36" rx="6" fill="#2563eb" opacity="0.6"/>
  <rect x="270" y="252" width="50" height="36" rx="6" fill="#2563eb" opacity="0.6"/>
  <rect x="192" y="312" width="50" height="36" rx="6" fill="#2563eb" opacity="0.6"/>
  <rect x="270" y="312" width="50" height="36" rx="6" fill="#2563eb" opacity="0.6"/>

  <!-- Porta -->
  <rect x="231" y="340" width="50" height="46" rx="8" fill="#2563eb" opacity="0.8"/>

  <!-- Edifício lateral esquerdo -->
  <rect x="76" y="220" width="96" height="166" rx="8" fill="white" opacity="0.7"/>
  <rect x="98" y="244" width="30" height="26" rx="4" fill="#2563eb" opacity="0.5"/>
  <rect x="144" y="244" width="14" height="26" rx="4" fill="#2563eb" opacity="0.5"/>
  <rect x="98" y="288" width="30" height="26" rx="4" fill="#2563eb" opacity="0.5"/>
  <rect x="144" y="288" width="14" height="26" rx="4" fill="#2563eb" opacity="0.5"/>

  <!-- Edifício lateral direito -->
  <rect x="340" y="220" width="96" height="166" rx="8" fill="white" opacity="0.7"/>
  <rect x="358" y="244" width="30" height="26" rx="4" fill="#2563eb" opacity="0.5"/>
  <rect x="404" y="244" width="14" height="26" rx="4" fill="#2563eb" opacity="0.5"/>
  <rect x="358" y="288" width="30" height="26" rx="4" fill="#2563eb" opacity="0.5"/>
  <rect x="404" y="288" width="14" height="26" rx="4" fill="#2563eb" opacity="0.5"/>

  <!-- Chão -->
  <rect x="60" y="382" width="392" height="12" rx="6" fill="white" opacity="0.4"/>
</svg>
